<svg width="30" height="26" viewBox="0 0 30 26" fill="none" xmlns="http://www.w3.org/2000/svg">
<path fill-rule="evenodd" clip-rule="evenodd" d="M27.1425 14.1322C27.1098 7.66293 21.6946 2.3635 15.0281 2.3635C8.36147 2.3635 2.94632 7.66293 2.91361 14.1322H5.94222C6.9453 14.1322 7.75939 14.923 7.75939 15.8975V24.1355C7.75939 25.11 6.9453 25.9008 5.94222 25.9008H2.30789C1.30481 25.9008 0.490723 25.11 0.490723 24.1355L0.490723 14.1322C0.523432 6.36367 7.02525 0.00976563 15.0281 0.00976563C23.0308 0.00976563 29.5327 6.36367 29.5654 14.1322V24.1355C29.5654 25.11 28.7513 25.9008 27.7482 25.9008H24.1139C23.1108 25.9008 22.2967 25.11 22.2967 24.1355V15.8975C22.2967 14.923 23.1108 14.1322 24.1139 14.1322H27.1425Z" fill="currentColor"/>
</svg>
