<svg width="30" height="30" viewBox="0 0 30 30" fill="none" xmlns="http://www.w3.org/2000/svg">
<path fill-rule="evenodd" clip-rule="evenodd" d="M26.6666 15.636C26.6358 9.38867 21.421 4.27299 15.0005 4.27299C8.57998 4.27299 3.36519 9.38963 3.33438 15.636H6.25042C7.21634 15.636 8.00024 16.3998 8.00024 17.3412V25.2957C8.00024 26.2362 7.21634 27 6.25042 27H2.75078C1.78487 26.999 1 26.2362 1 25.2957V15.636C1.03178 8.13534 7.29338 2 15.0005 2C22.7076 2 28.9692 8.13534 29 15.636V25.2957C29 26.2362 28.2161 27 27.2502 27H23.7505C22.7846 27 22.0007 26.2362 22.0007 25.2957V17.3412C22.0007 16.3998 22.7846 15.636 23.7505 15.636H26.6666Z" fill="black"/>
</svg>
