<svg width="29" height="30" viewBox="0 0 29 30" fill="none" xmlns="http://www.w3.org/2000/svg">
<path d="M3.96387 0.833008C2.30701 0.833008 0.963867 2.17615 0.963867 3.83301L0.963867 22.5531C0.963867 23.8434 2.00989 24.8894 3.30022 24.8894H3.41093C4.64012 24.8894 5.63658 25.8859 5.63658 27.1151C5.63658 29.024 7.88209 30.0472 9.32261 28.7946L12.9672 25.6256C13.5132 25.1509 14.2123 24.8894 14.9357 24.8894H26.0001C27.657 24.8894 29.0001 23.5463 29.0001 21.8894V3.83301C29.0001 2.17616 27.657 0.833008 26.0001 0.833008L3.96387 0.833008ZM16.1502 17.1247C16.1502 17.5159 15.8331 17.833 15.4419 17.833H7.51309C7.12189 17.833 6.80476 17.5159 6.80476 17.1247C6.80476 16.7335 7.12189 16.4163 7.51309 16.4163H15.4419C15.8331 16.4163 16.1502 16.7335 16.1502 17.1247ZM23.1593 12.8747C23.1593 13.2659 22.8421 13.583 22.4509 13.583H7.51309C7.12189 13.583 6.80476 13.2659 6.80476 12.8747C6.80476 12.4835 7.12189 12.1663 7.51309 12.1663H22.4509C22.8421 12.1663 23.1593 12.4835 23.1593 12.8747ZM23.1593 8.62467C23.1593 9.01588 22.8421 9.33301 22.4509 9.33301H7.51309C7.12189 9.33301 6.80476 9.01588 6.80476 8.62467C6.80476 8.23347 7.12189 7.91634 7.51309 7.91634L22.4509 7.91634C22.8421 7.91634 23.1593 8.23347 23.1593 8.62467Z" fill="currentColor"/>
</svg>
