<svg width="30" height="30" viewBox="0 0 30 30" fill="none" xmlns="http://www.w3.org/2000/svg">
<path d="M26 15.5417V3.77024C26 2.79256 25.1185 2 24.0311 2H4.96888C3.88149 2 3 2.79256 3 3.77024V25.2298C3 26.2075 3.8815 27 4.96889 27H12.6704C18.2559 27 16.5057 18.6667 16.5057 18.6667C19.966 19.4427 26 19.1031 26 15.5417ZM21.4 8.25H7.60001V7.20833H21.4V8.25ZM21.4 11.375H7.60001V10.3333H21.4V11.375ZM21.4 14.5H7.60001V13.4583H21.4V14.5ZM18.9954 20.9823C21.3494 21.4802 24.5212 20.6917 26 19.7542C24.282 21.8354 19.9856 25.7 17.4532 26.9218C18.7827 25.7052 19.2507 22.5115 18.9954 20.9823Z" fill="black"/>
</svg>
