<svg width="25" height="30" viewBox="0 0 25 30" fill="none" xmlns="http://www.w3.org/2000/svg">
<path d="M24.2141 16.1323V2.83301C24.2141 1.72844 23.3187 0.833008 22.2141 0.833008L2.85058 0.833008C1.74601 0.833008 0.850586 1.72844 0.850586 2.83301L0.850586 27.0778C0.850586 28.1824 1.74602 29.0778 2.85059 29.0778H10.6738C16.3476 29.0778 14.5697 19.6629 14.5697 19.6629C18.0847 20.5396 24.2141 20.156 24.2141 16.1323ZM19.5414 7.89421L5.5233 7.89421V6.71734L19.5414 6.71734V7.89421ZM19.5414 11.4248H5.5233V10.2479H19.5414V11.4248ZM19.5414 14.9554H5.5233V13.7785H19.5414V14.9554ZM17.0988 22.279C19.49 22.8416 22.7119 21.9507 24.2141 20.8915C22.4689 23.2429 18.1046 27.6091 15.5322 28.9895C16.8827 27.615 17.3581 24.0067 17.0988 22.279Z" fill="currentColor"/>
</svg>
