<svg width="32" height="32" viewBox="0 0 32 32" fill="none" xmlns="http://www.w3.org/2000/svg">
<g clip-path="url(#clip0_309_501)">
<path fill-rule="evenodd" clip-rule="evenodd" d="M5.67844 27.5838L11.1214 18.1702L18.4958 30.9043C17.5672 31.0771 16.61 31.1667 15.6306 31.1667C11.8498 31.1667 8.37978 29.8213 5.67844 27.5838ZM30.3508 20.77C28.8135 25.1138 25.4007 28.5772 21.0853 30.1875L15.6397 20.77H30.3508ZM11.1201 12.9783L3.76396 25.7008C1.43198 22.9776 0.0234375 19.4428 0.0234375 15.5833C0.0234375 14.6951 0.0975716 13.825 0.240637 12.9783H11.1201ZM27.4856 5.45287C29.824 8.17735 31.2378 11.7174 31.2378 15.5833C31.2378 16.4651 31.1637 17.33 31.0232 18.1728H20.1333L27.4856 5.45287ZM12.7823 0.259722C13.7057 0.0896042 14.6578 0 15.6306 0C19.4062 0 22.8697 1.34146 25.5698 3.57248L20.1333 12.9744L12.7823 0.259722ZM15.6306 10.3811H0.915648C2.45816 6.03854 5.87353 2.57904 10.1915 0.973958L15.6306 10.3811Z" fill="currentColor"/>
</g>
<defs>
<clipPath id="clip0_309_501">
<rect width="31.2143" height="31.1667" fill="white" transform="translate(0.0234375)"/>
</clipPath>
</defs>
</svg>
