<svg width="30" height="30" viewBox="0 0 30 30" fill="none" xmlns="http://www.w3.org/2000/svg">
<path fill-rule="evenodd" clip-rule="evenodd" d="M5.8915 24.8961L10.5996 16.741L16.9783 27.7727C16.1751 27.9224 15.3472 28 14.5 28C11.2296 28 8.22812 26.8345 5.8915 24.8961ZM27.2328 18.9932C25.903 22.7563 22.951 25.7567 19.2182 27.1517L14.5079 18.9932H27.2328ZM10.5985 12.2432L4.2355 23.2648C2.21837 20.9057 1 17.8435 1 14.5C1 13.7305 1.06412 12.9767 1.18787 12.2432H10.5985ZM24.7544 5.72387C26.7771 8.08411 28 11.1509 28 14.5C28 15.2639 27.9359 16.0131 27.8144 16.7433H18.3948L24.7544 5.72387ZM12.0362 1.225C12.835 1.07762 13.6585 1 14.5 1C17.7658 1 20.7617 2.16212 23.0973 4.09487L18.3948 12.2398L12.0362 1.225ZM14.5 9.99324H1.77175C3.106 6.23124 6.06025 3.23425 9.79524 1.84375L14.5 9.99324Z" fill="black"/>
</svg>
