<svg width="20" height="20" viewBox="0 0 20 20" fill="none" xmlns="http://www.w3.org/2000/svg">
<path d="M10.0019 0.00488281C15.5199 0.00488281 19.9999 4.48488 19.9999 10.0019C19.9999 15.5199 15.5199 19.9999 10.0019 19.9999C4.48488 19.9999 0.00488281 15.5199 0.00488281 10.0019C0.00488281 4.48488 4.48488 0.00488281 10.0019 0.00488281ZM14.9999 13.2499C14.9999 12.8359 14.6639 12.4999 14.2499 12.4999H5.74988C5.33588 12.4999 4.99988 12.8359 4.99988 13.2499C4.99988 13.6639 5.33588 13.9999 5.74988 13.9999H14.2499C14.6639 13.9999 14.9999 13.6639 14.9999 13.2499ZM14.9999 10.0019C14.9999 9.58788 14.6639 9.25188 14.2499 9.25188H5.74988C5.33588 9.25188 4.99988 9.58788 4.99988 10.0019C4.99988 10.4159 5.33588 10.7519 5.74988 10.7519H14.2499C14.6639 10.7519 14.9999 10.4159 14.9999 10.0019ZM14.9999 6.74988C14.9999 6.33588 14.6639 5.99988 14.2499 5.99988H5.74988C5.33588 5.99988 4.99988 6.33588 4.99988 6.74988C4.99988 7.16388 5.33588 7.49988 5.74988 7.49988H14.2499C14.6639 7.49988 14.9999 7.16388 14.9999 6.74988Z" fill="black"/>
</svg>
