<svg width="30" height="30" viewBox="0 0 30 30" fill="none" xmlns="http://www.w3.org/2000/svg">
<path d="M14.914 21.3418C14.507 20.8721 13.7844 21.0492 13.5985 21.6618C12.5996 24.9531 12.4013 25.5407 12.4013 26.0595C12.4013 26.721 12.9018 27 13.2164 27C13.53 27 14.4203 26.6449 17.085 25.5727C17.6104 25.3612 17.7687 24.6356 17.3846 24.1925L14.914 21.3418ZM15.6703 18.3851C15.3865 18.7122 15.3864 19.2228 15.6701 19.5502L18.7816 23.1404C19.0904 23.4967 19.6119 23.4969 19.9209 23.1408L27.6815 14.196C27.8934 13.9515 28 13.632 28 13.3095C28 12.99 27.8934 12.669 27.6815 12.423C26.9275 11.5545 25.7861 10.2375 25.0308 9.369C24.8189 9.1245 24.5407 9.0015 24.2625 9.0015C23.9856 9.0015 23.7061 9.1245 23.4929 9.369L15.6703 18.3851ZM11.1 17.625C11.1 17.022 10.6372 16.5 10.125 16.5C6.7957 16.5 6.3043 16.5 2.975 16.5C2.4628 16.5 2 17.022 2 17.625C2 18.228 2.4628 18.75 2.975 18.75H10.125C10.6372 18.75 11.1 18.228 11.1 17.625ZM17.6 13.125C17.6 12.522 17.1372 12 16.625 12C13.2957 12 6.3043 12 2.975 12C2.4628 12 2 12.522 2 13.125C2 13.728 2.4628 14.25 2.975 14.25H16.625C17.1372 14.25 17.6 13.728 17.6 13.125ZM17.6 8.625C17.6 8.022 17.1372 7.5 16.625 7.5C13.2957 7.5 6.3043 7.5 2.975 7.5C2.4628 7.5 2 8.022 2 8.625C2 9.228 2.4628 9.75 2.975 9.75H16.625C17.1372 9.75 17.6 9.228 17.6 8.625ZM17.6 4.125C17.6 3.522 17.1372 3 16.625 3C13.2957 3 6.3043 3 2.975 3C2.4628 3 2 3.522 2 4.125C2 4.728 2.4628 5.25 2.975 5.25H16.625C17.1372 5.25 17.6 4.728 17.6 4.125Z" fill="black"/>
</svg>
