<svg width="34" height="30" viewBox="0 0 34 30" fill="none" xmlns="http://www.w3.org/2000/svg">
<path d="M16.5042 22.4189C15.984 21.8661 15.0606 22.0745 14.823 22.7954C13.5464 26.6689 13.2929 27.3604 13.2929 27.971C13.2929 28.7495 13.9326 29.0778 14.3346 29.0778C14.7354 29.0778 15.8732 28.6599 19.2788 27.398C19.9502 27.1492 20.1525 26.2952 19.6617 25.7738L16.5042 22.4189ZM17.4708 18.9392C17.1081 19.3242 17.1079 19.9251 17.4705 20.3104L21.447 24.5356C21.8417 24.9549 22.5081 24.9551 22.9031 24.536L32.8211 14.0092C33.0919 13.7215 33.2282 13.3455 33.2282 12.9659C33.2282 12.5899 33.0919 12.2121 32.8211 11.9226C31.8575 10.9005 30.3988 9.35058 29.4335 8.32847C29.1627 8.04073 28.8072 7.89597 28.4516 7.89597C28.0977 7.89597 27.7405 8.04073 27.4681 8.32847L17.4708 18.9392ZM11.6299 18.0447C11.6299 17.335 11.0384 16.7207 10.3838 16.7207C6.12894 16.7207 5.50093 16.7207 1.24606 16.7207C0.591462 16.7207 0 17.335 0 18.0447C0 18.7543 0.591462 19.3687 1.24606 19.3687H10.3838C11.0384 19.3687 11.6299 18.7543 11.6299 18.0447ZM19.9369 12.7488C19.9369 12.0391 19.3454 11.4248 18.6909 11.4248C14.436 11.4248 5.50093 11.4248 1.24606 11.4248C0.591462 11.4248 0 12.0391 0 12.7488C0 13.4584 0.591462 14.0728 1.24606 14.0728H18.6909C19.3454 14.0728 19.9369 13.4584 19.9369 12.7488ZM19.9369 7.45288C19.9369 6.74323 19.3454 6.12891 18.6909 6.12891C14.436 6.12891 5.50093 6.12891 1.24606 6.12891C0.591462 6.12891 0 6.74323 0 7.45288C0 8.16253 0.591462 8.77686 1.24606 8.77686H18.6909C19.3454 8.77686 19.9369 8.16253 19.9369 7.45288ZM19.9369 2.15698C19.9369 1.44733 19.3454 0.833008 18.6909 0.833008C14.436 0.833008 5.50093 0.833008 1.24606 0.833008C0.591462 0.833008 0 1.44733 0 2.15698C0 2.86663 0.591462 3.48096 1.24606 3.48096L18.6909 3.48096C19.3454 3.48096 19.9369 2.86663 19.9369 2.15698Z" fill="currentColor"/>
</svg>
