<svg width="22" height="15" viewBox="0 0 22 15" fill="none" xmlns="http://www.w3.org/2000/svg">
<path d="M14.444 13.75C14.444 13.2808 14.0632 12.9 13.594 12.9H8.434C7.96477 12.9 7.584 13.2808 7.584 13.75C7.584 14.2192 7.96477 14.6 8.434 14.6H13.594C14.0632 14.6 14.444 14.2192 14.444 13.75ZM16.65 9.75C16.65 9.28077 16.2692 8.9 15.8 8.9H6.204C5.73477 8.9 5.354 9.28077 5.354 9.75C5.354 10.2192 5.73477 10.6 6.204 10.6H15.8C16.2692 10.6 16.65 10.2192 16.65 9.75ZM19.1 5.75C19.1 5.28077 18.7192 4.9 18.25 4.9H3.75C3.28077 4.9 2.9 5.28077 2.9 5.75C2.9 6.21923 3.28077 6.6 3.75 6.6H18.25C18.7192 6.6 19.1 6.21923 19.1 5.75ZM21.1 1.75C21.1 1.28077 20.7192 0.9 20.25 0.9H1.75C1.28077 0.9 0.9 1.28077 0.9 1.75C0.9 2.21923 1.28077 2.6 1.75 2.6H20.25C20.7192 2.6 21.1 2.21923 21.1 1.75Z" fill="black" stroke="black" stroke-width="0.2"/>
</svg>
