<svg width="29" height="28" viewBox="0 0 29 28" fill="none" xmlns="http://www.w3.org/2000/svg">
<g clip-path="url(#clip0_48_173)">
<path fill-rule="evenodd" clip-rule="evenodd" d="M25.7315 15.1667C25.6999 8.75358 20.4717 3.50008 14.0353 3.50008C7.59897 3.50008 2.3708 8.75358 2.33922 15.1667H5.26325C6.23169 15.1667 7.01767 15.9507 7.01767 16.9167V25.0834C7.01767 26.0494 6.23169 26.8334 5.26325 26.8334H1.75442C0.785979 26.8334 0 26.0494 0 25.0834L0 15.1667C0.0315795 7.46558 6.30888 1.16675 14.0353 1.16675C21.7618 1.16675 28.0391 7.46558 28.0707 15.1667V25.0834C28.0707 26.0494 27.2847 26.8334 26.3163 26.8334H22.8074C21.839 26.8334 21.053 26.0494 21.053 25.0834V16.9167C21.053 15.9507 21.839 15.1667 22.8074 15.1667H25.7315Z" fill="white"/>
</g>
<defs>
<clipPath id="clip0_48_173">
<rect width="28.0707" height="28" rx="5" fill="white"/>
</clipPath>
</defs>
</svg>
