<svg width="20" height="20" viewBox="0 0 20 20" fill="none" xmlns="http://www.w3.org/2000/svg">
<path d="M10.0099 1.66675C14.6082 1.66675 18.3407 5.40008 18.3407 9.99841C18.3407 14.5959 14.6082 18.3292 10.0099 18.3292C5.41156 18.3292 1.67822 14.5959 1.67822 9.99841C1.67822 5.40008 5.41156 1.66675 10.0099 1.66675ZM8.74072 6.84175C8.74072 6.84175 7.48906 8.09591 6.02822 9.55758C5.90572 9.68008 5.84489 9.84008 5.84489 10.0001C5.84489 10.1601 5.90572 10.3192 6.02822 10.4417C7.48906 11.9034 8.73989 13.1567 8.73989 13.1567C8.86072 13.2776 9.01906 13.3376 9.17822 13.3376C9.33822 13.3367 9.49822 13.2759 9.62072 13.1534C9.86406 12.9092 9.86572 12.5151 9.62322 12.2726L7.97572 10.6251H13.5532C13.8982 10.6251 14.1782 10.3451 14.1782 10.0001C14.1782 9.65508 13.8982 9.37508 13.5532 9.37508H7.97572L9.62406 7.72591C9.86572 7.48508 9.86322 7.09091 9.61906 6.84758C9.49656 6.72508 9.33656 6.66341 9.17739 6.66258C9.01906 6.66258 8.86072 6.72175 8.74072 6.84175Z" fill="#393939"/>
</svg>
