<svg width="29" height="29" viewBox="0 0 29 29" fill="none" xmlns="http://www.w3.org/2000/svg">
<path d="M3.21191 0C1.55506 0 0.211914 1.34315 0.211914 3L0.211914 21.3802C0.211914 22.6689 1.25658 23.7135 2.54525 23.7135H2.67176C3.89055 23.7135 4.87858 24.7016 4.87858 25.9204C4.87858 27.8064 7.09141 28.8233 8.52263 27.595L12.2023 24.437C12.7462 23.9702 13.4393 23.7135 14.1561 23.7135H25.2119C26.8688 23.7135 28.2119 22.3704 28.2119 20.7135V3C28.2119 1.34314 26.8688 0 25.2119 0L3.21191 0ZM15.3786 16.0595C15.3786 16.4451 15.066 16.7577 14.6803 16.7577H6.74348C6.35786 16.7577 6.04525 16.4451 6.04525 16.0595C6.04525 15.6738 6.35786 15.3612 6.74348 15.3612H14.6803C15.066 15.3612 15.3786 15.6738 15.3786 16.0595ZM22.3786 11.87C22.3786 12.2557 22.066 12.5683 21.6803 12.5683H6.74348C6.35786 12.5683 6.04525 12.2557 6.04525 11.87C6.04525 11.4844 6.35786 11.1718 6.74348 11.1718H21.6803C22.066 11.1718 22.3786 11.4844 22.3786 11.87ZM22.3786 7.68061C22.3786 8.06624 22.066 8.37885 21.6803 8.37885H6.74348C6.35786 8.37885 6.04525 8.06624 6.04525 7.68061C6.04525 7.29499 6.35786 6.98238 6.74348 6.98238L21.6803 6.98238C22.066 6.98238 22.3786 7.29499 22.3786 7.68061Z" fill="white"/>
</svg>
