<svg width="29" height="28" viewBox="0 0 29 28" fill="none" xmlns="http://www.w3.org/2000/svg">
<path d="M25.8727 15.1667V2C25.8727 0.895432 24.9773 0 23.8727 0L4.48047 0C3.3759 0 2.48047 0.895431 2.48047 2L2.48047 26C2.48047 27.1046 3.3759 28 4.48047 28H12.3157C17.9965 28 16.2164 18.6667 16.2164 18.6667C19.7357 19.5358 25.8727 19.1555 25.8727 15.1667ZM21.1943 7L7.15891 7V5.83333L21.1943 5.83333V7ZM21.1943 10.5H7.15891V9.33333H21.1943V10.5ZM21.1943 14H7.15891V12.8333H21.1943V14ZM18.7486 21.2602C21.1428 21.8178 24.3686 20.9347 25.8727 19.8847C24.1253 22.2157 19.7556 26.544 17.1801 27.9125C18.5322 26.5498 19.0082 22.9728 18.7486 21.2602Z" fill="white"/>
</svg>
