<svg width="29" height="28" viewBox="0 0 29 28" fill="none" xmlns="http://www.w3.org/2000/svg">
<path fill-rule="evenodd" clip-rule="evenodd" d="M5.15627 24.7812L10.0511 16.324L16.6828 27.7643C15.8477 27.9195 14.9869 28 14.1061 28C10.7061 28 7.58555 26.7913 5.15627 24.7812ZM27.3438 18.6597C25.9613 22.5622 22.8923 25.6737 19.0115 27.1203L14.1143 18.6597H27.3438ZM10.0499 11.6597L3.4346 23.0895C1.33749 20.643 0.0708008 17.4673 0.0708008 14C0.0708008 13.202 0.137469 12.4203 0.266126 11.6597H10.0499ZM24.7671 4.89883C26.8701 7.3465 28.1415 10.5268 28.1415 14C28.1415 14.7922 28.0748 15.5692 27.9485 16.3263H18.1553L24.7671 4.89883ZM11.5447 0.233333C12.3751 0.0805 13.2313 0 14.1061 0C17.5015 0 20.6162 1.20517 23.0443 3.2095L18.1553 11.6562L11.5447 0.233333ZM14.1061 9.32633H0.873154C2.26031 5.425 5.33171 2.317 9.21482 0.875L14.1061 9.32633Z" fill="white"/>
</svg>
