<svg width="34" height="28" viewBox="0 0 34 28" fill="none" xmlns="http://www.w3.org/2000/svg">
<path d="M16.8469 21.3569C16.3258 20.8204 15.4205 21.0278 15.1797 21.7359C13.8627 25.6076 13.6017 26.2956 13.6017 26.9027C13.6017 27.6745 14.2562 28 14.6676 28C15.0772 28 16.2389 27.5868 19.7134 26.3395C20.3978 26.0938 20.6016 25.2221 20.0949 24.7004L16.8469 21.3569ZM17.8935 17.932C17.5162 18.3199 17.516 18.9377 17.8931 19.3259L21.973 23.5258C22.3656 23.9299 23.0144 23.9301 23.4072 23.5262L33.5835 13.062C33.8606 12.7767 34 12.404 34 12.0278C34 11.655 33.8606 11.2805 33.5835 10.9935C32.5975 9.98025 31.1049 8.44375 30.1172 7.4305C29.8401 7.14525 29.4763 7.00175 29.1125 7.00175C28.7504 7.00175 28.3849 7.14525 28.1061 7.4305L17.8935 17.932ZM11.9 17.0625C11.9 16.359 11.2948 15.75 10.625 15.75C6.2713 15.75 5.6287 15.75 1.275 15.75C0.6052 15.75 0 16.359 0 17.0625C0 17.766 0.6052 18.375 1.275 18.375H10.625C11.2948 18.375 11.9 17.766 11.9 17.0625ZM20.4 11.8125C20.4 11.109 19.7948 10.5 19.125 10.5C14.7713 10.5 5.6287 10.5 1.275 10.5C0.6052 10.5 0 11.109 0 11.8125C0 12.516 0.6052 13.125 1.275 13.125H19.125C19.7948 13.125 20.4 12.516 20.4 11.8125ZM20.4 6.5625C20.4 5.859 19.7948 5.25 19.125 5.25C14.7713 5.25 5.6287 5.25 1.275 5.25C0.6052 5.25 0 5.859 0 6.5625C0 7.266 0.6052 7.875 1.275 7.875L19.125 7.875C19.7948 7.875 20.4 7.266 20.4 6.5625ZM20.4 1.3125C20.4 0.609 19.7948 0 19.125 0C14.7713 0 5.6287 0 1.275 0C0.6052 0 0 0.609 0 1.3125C0 2.016 0.6052 2.625 1.275 2.625L19.125 2.625C19.7948 2.625 20.4 2.016 20.4 1.3125Z" fill="white"/>
</svg>
